<svg width="277" height="347" viewBox="0 0 277 347" fill="none" xmlns="http://www.w3.org/2000/svg">
<path d="M159.531 91.5557C159.531 91.7096 159.377 91.8636 159.377 92.0175C159.377 91.7096 159.531 91.7096 159.531 91.5557Z" fill="black"/>
<path d="M136.438 249.815H36.5251C16.9736 249.815 0.962891 233.804 0.962891 214.253V75.6987C0.962891 56.1472 16.9736 40.1365 36.5251 40.1365H202.328L157.837 156.214L155.99 188.851L143.982 225.953L136.438 249.815Z" fill="#1E7EC2"/>
<path d="M36.5256 50.7588C22.8241 50.7588 11.7397 61.9971 11.7397 75.6985V214.253C11.7397 227.954 22.8241 239.039 36.5256 239.039H128.433L133.667 222.72L145.368 186.85L147.215 153.905L186.626 50.9127H36.5256V50.7588Z" fill="#70BFEA"/>
<path d="M245.743 0.879395C243.741 0.879395 241.586 0.879395 239.585 0.879395C224.498 4.72812 212.644 13.5032 202.637 24.5876C202.637 24.5876 181.238 51.5287 167.229 76.1605C164.611 81.2408 161.994 86.3212 159.531 91.4015C159.531 91.5554 159.377 91.7094 159.377 91.8633C149.986 111.569 142.443 132.044 137.67 153.751C136.593 158.369 137.67 163.604 138.594 168.53C139.364 172.687 141.211 176.843 142.443 181C142.597 181.616 142.443 182.539 142.289 184.849C139.056 179.152 136.747 174.842 133.668 169.454C131.05 176.843 126.586 182.385 129.973 190.083C132.744 196.241 134.437 202.861 135.361 209.788C132.436 204.708 129.665 199.628 126.586 194.547C122.275 202.091 122.275 203.015 126.432 225.953C126.432 225.953 134.745 248.43 135.515 261.823C135.977 264.902 136.131 269.213 136.131 275.217C136.593 293.383 137.978 311.549 139.364 329.561C139.826 335.103 141.827 340.645 143.212 346.187C143.828 346.033 144.444 346.033 145.214 345.879C132.744 289.688 143.212 235.344 159.993 182.231C176.927 128.811 202.791 79.8553 241.74 38.5969C198.018 105.257 166.151 177.459 150.602 256.435C159.685 241.964 172.001 231.649 186.934 224.106C187.858 223.644 188.781 223.028 189.243 222.258C199.712 208.095 210.18 193.932 220.649 179.614C220.341 179.152 220.033 178.691 219.725 178.229C208.949 181 198.018 183.771 187.242 186.542C194.939 181.616 202.483 176.227 210.95 174.072C225.729 170.223 233.427 159.909 240.354 147.593C256.365 118.65 271.298 89.4001 275.917 55.9932C279.611 29.36 268.989 9.3466 245.743 0.879395Z" fill="#013A56"/>
</svg>
